<svg
    width="256"
    height="256"
    viewBox="0 0 256 256"
    fill="none"
    xmlns="http://www.w3.org/2000/svg">

    <!-- Background -->
    <rect width="256" height="256" rx="48" fill="#0F1F1A"/>

    <g
        stroke="#C8A45A"
        stroke-width="8"
        stroke-linecap="round"
        stroke-linejoin="round">

        <!-- Outer body -->
        <path d="M42 70H214V198H42V70Z"/>

        <!-- Lid -->
        <path d="M42 70L70 34H186L214 70"/>

        <!-- Lid bottom edge -->
        <path d="M42 70H214"/>

        <!-- Mid horizontal bands -->
        <path d="M42 98H110"/>
        <path d="M146 98H214"/>

        <!-- Lock strap -->
        <rect x="116" y="82" width="24" height="38"/>

        <!-- Lock body -->
        <rect x="104" y="120" width="48" height="48"/>

        <!-- Diamond on lock -->
        <path d="M128 132L138 144L128 156L118 144L128 132Z"/>

        <!-- Diamond on lid -->
        <path d="M128 46L140 54L128 62L116 54L128 46Z"/>

        <!-- Bottom bands -->
        <path d="M42 186H214"/>
        <path d="M42 198H214"/>

        <!-- Feet -->
        <path d="M42 198H78L70 214H42V198Z"/>
        <path d="M214 198H178L186 214H214V198Z"/>

    </g>
</svg>
